<svg width="50px" height="769px" viewBox="545 99 50 769" version="1.1" xmlns="http://www.w3.org/2000/svg" xmlns:xlink="http://www.w3.org/1999/xlink">
    <defs>
      <path d="M3,19 C4.65685425,19 6,17.6568542 6,16 C6,14.3431458 4.65685425,13 3,13 C1.34314575,13 0,14.3431458 0,16 C0,17.6568542 1.34314575,19 3,19 Z" id="path-1"></path>
      <filter x="-50%" y="-50%" width="200%" height="200%" filterUnits="objectBoundingBox" id="filter-2">
        <feMorphology radius="0.5" operator="dilate" in="SourceAlpha" result="shadowSpreadOuter1"></feMorphology>
        <feOffset dx="0" dy="1" in="shadowSpreadOuter1" result="shadowOffsetOuter1"></feOffset>
        <feGaussianBlur stdDeviation="10" in="shadowOffsetOuter1" result="shadowBlurOuter1"></feGaussianBlur>
        <feColorMatrix values="0 0 0 0 1   0 0 0 0 0.8   0 0 0 0 0  0 0 0 1 0" type="matrix" in="shadowBlurOuter1"></feColorMatrix>
      </filter>
    </defs>
    <g id="Line" stroke="none" stroke-width="1" fill="none" fill-rule="evenodd" transform="translate(545.000000, 99.000000)">
      <path d="M25,11 L25,750" stroke="#12b0aa" stroke-width="4" stroke-linecap="round" stroke-linejoin="round" stroke-dasharray="0.01,14"></path>
      <g id="yellow-dot" transform="translate(22.000000, 527.000000)">
        <path d="M3,4 C4.1045695,4 5,3.1045695 5,2 C5,0.8954305 4.1045695,0 3,0 C1.8954305,0 1,0.8954305 1,2 C1,3.1045695 1.8954305,4 3,4 Z" id="Oval-189" fill="#12b0aa"></path>
        <path d="M3,32 C4.1045695,32 5,31.1045695 5,30 C5,28.8954305 4.1045695,28 3,28 C1.8954305,28 1,28.8954305 1,30 C1,31.1045695 1.8954305,32 3,32 Z" id="Oval-189-Copy-6" fill="#12b0aa"></path>
        <g id="Oval-189-Copy-5">
          <use fill="black" fill-opacity="1" filter="url(#filter-2)" xlink:href="#path-1"></use>
          <use fill="#12b0aa" fill-rule="evenodd" xlink:href="#path-1"></use>
        </g>
      </g>
      <g id="red-dot" transform="translate(22.000000, 107.000000)">
        <path d="M3,4 C4.1045695,4 5,3.1045695 5,2 C5,0.8954305 4.1045695,0 3,0 C1.8954305,0 1,0.8954305 1,2 C1,3.1045695 1.8954305,4 3,4 Z" id="Oval-189" fill="#12b0aa"></path>
        <path d="M3,32 C4.1045695,32 5,31.1045695 5,30 C5,28.8954305 4.1045695,28 3,28 C1.8954305,28 1,28.8954305 1,30 C1,31.1045695 1.8954305,32 3,32 Z" id="Oval-189-Copy-2" fill="#12b0aa"></path>
        <g id="Oval-189-Copy">
          <use fill="black" fill-opacity="1" filter="url(#filter-4)" xlink:href="#path-3"></use>
          <use fill="#12b0aa" fill-rule="evenodd" xlink:href="#path-3"></use>
        </g>
      </g>
      <g id="blue-dot" transform="translate(22.000000, 317.000000)">
        <path d="M3,32 C4.1045695,32 5,31.1045695 5,30 C5,28.8954305 4.1045695,28 3,28 C1.8954305,28 1,28.8954305 1,30 C1,31.1045695 1.8954305,32 3,32 Z" id="Oval-189" fill="#12b0aa"></path>
        <path d="M3,4 C4.1045695,4 5,3.1045695 5,2 C5,0.8954305 4.1045695,0 3,0 C1.8954305,0 1,0.8954305 1,2 C1,3.1045695 1.8954305,4 3,4 Z" id="Oval-189-Copy-4" fill="#12b0aa"></path>
        <g id="Oval-189-Copy-3">
          <use fill="black" fill-opacity="1" filter="url(#filter-6)" xlink:href="#path-5"></use>
          <use fill="#12b0aa" fill-rule="evenodd" xlink:href="#path-5"></use>
        </g>
      </g>

    </g>
  </svg>