<?xml version="1.0" encoding="iso-8859-1"?>
<!-- Generator: Adobe Illustrator 19.0.0, SVG Export Plug-In . SVG Version: 6.00 Build 0)  -->
<svg xmlns="http://www.w3.org/2000/svg" xmlns:xlink="http://www.w3.org/1999/xlink" version="1.1" id="Layer_1" x="0px" y="0px" viewBox="0 0 510.012 510.012" style="enable-background:new 0 0 510.012 510.012;" xml:space="preserve" width="512" height="512">
<g>
	<g>
		<path style="fill:#576574;" d="M242.213,5.373c-43.714,0-79.148,35.435-79.148,79.149v31.321    c5.29-4.903,12.815-7.568,20.162-6.587v-3.944c0-3.135,2.677-5.612,5.781-5.377c30.601,2.198,61.744-7.526,85.291-22.908    c2.198-1.437,5.109-1.079,6.896,0.841c20.131,21.639,20.01,20.802,20.01,23.627v7.745c8.052-1.207,15.195,1.281,20.158,5.895    V84.522C321.361,40.808,285.927,5.373,242.213,5.373z"/>
		<g>
			<path style="fill:#3E4B5A;" d="M184.309,84.522c0-40.109,29.839-73.226,68.526-78.419c-3.477-0.467-7.018-0.73-10.622-0.73     c-43.714,0-79.148,35.435-79.148,79.149v31.321c5.29-4.903,12.815-7.568,20.161-6.587v-3.944c0-1.218,0.407-2.333,1.083-3.231     V84.522z"/>
		</g>
		<path style="fill:#F2BB88;" d="M300.155,106.094v43.358c0,0.47-0.025,0.934-0.036,1.402c15.343,2.323,27.36-8.763,27.36-22.378    C327.479,114.833,315.452,103.801,300.155,106.094z"/>
		<path style="fill:#F2BB88;" d="M184.275,149.451V106.11c-13.358-1.784-27.325,8.468-27.325,22.365    c0,13.597,11.99,24.704,27.359,22.378C184.297,150.385,184.275,149.919,184.275,149.451z"/>
		<path style="fill:#E3A76F;" d="M319.35,111.145c-4.903-4.068-11.649-6.183-19.195-5.052v43.358c0,0.47-0.024,0.934-0.036,1.402    c7.568,1.146,14.324-0.975,19.231-5.049V111.145z"/>
		<path style="fill:#E3A76F;" d="M184.274,145.808c-5.043-4.187-8.129-10.437-8.129-17.332c0-6.709,3.26-12.562,8.129-16.628v-5.737    c-13.357-1.784-27.325,8.468-27.325,22.365c0,13.597,11.99,24.704,27.359,22.378c-0.011-0.468-0.034-0.934-0.034-1.402V145.808z"/>
		<path style="fill:#F2BB88;" d="M243.056,206.549c-12.787,0-24.024-3.511-33.215-9.383v31.063l33.073,40.823l33.072-40.823V196.29    C266.618,202.753,255.274,206.549,243.056,206.549z"/>
		<path style="fill:#E3A76F;" d="M231.022,205.455c-7.885-1.463-14.998-4.338-21.181-8.289v31.063l21.181,26.144V205.455z"/>
		<g>
			<path style="fill:#E4EAF8;" d="M191.28,353.517c6.415-6.391,16.824-6.776,23.694-0.872l69.142,59.425l106.314-114.492     c-20.668-20.667-20.553-19.856-19.747-21.799c0.181-0.437,0.754-1.451,2.171-1.451h9.689     c-8.927-10.14-19.066-14.313-19.066-14.313l-87.493-33.884l-33.072,40.823l-33.073-40.823l-87.401,33.884     c0,0-32.36,13.304-32.36,50.193v144.122L191.28,353.517z"/>
		</g>
		<path style="fill:#D8DCE5;" d="M90.081,310.209v144.122l21.181-21.1V300.677c0-25.309,15.23-39.514,24.793-45.94    c-13.975,5.418-16.842,6.012-24.484,11.923C102.169,273.932,90.081,287.656,90.081,310.209z"/>
		<path style="fill:#F2D1A5;" d="M281.194,75.771c-1.787-1.92-4.697-2.277-6.896-0.841c-23.547,15.382-54.69,25.106-85.291,22.908    c-3.104-0.235-5.781,2.241-5.781,5.377V150.5c0,30.39,23.812,58.146,59.83,58.146c32.063,0,58.147-26.085,58.147-58.146V99.398    C301.204,96.573,301.325,97.41,281.194,75.771z"/>
		<g>
			<path style="fill:#F2BB88;" d="M204.407,150.5V97.961c-5.123,0.272-10.269,0.246-15.4-0.122     c-3.104-0.235-5.781,2.241-5.781,5.377V150.5c0,30.39,23.812,58.146,59.831,58.146c3.323,0,6.577-0.295,9.749-0.833     C225.37,203.16,204.407,179.238,204.407,150.5z"/>
		</g>
		<path style="fill:#D8DCE5;" d="M282.847,287.931l24.731-49.565l-31.591-12.235l-33.072,40.823l32.245,22.9    C277.769,291.709,281.417,290.796,282.847,287.931z"/>
		<path style="fill:#D8DCE5;" d="M203.027,287.931l-24.731-49.565l31.592-12.235l33.072,40.823l-32.245,22.9    C208.105,291.709,204.457,290.796,203.027,287.931z"/>
		<path style="fill:#EE5253;" d="M242.957,266.983v-0.028l-0.02,0.014l-0.02-0.014v0.028l-23.452,16.656l11.086,16.684    c8.944,0,15.831,0,24.773,0l11.086-16.684L242.957,266.983z"/>
		<path style="fill:#D83941;" d="M254.673,275.304l-11.716-8.321v-0.028l-0.02,0.014l-0.02-0.014v0.028l-23.452,16.656    l11.086,16.685c8.626,0,15.324,0,23.472,0l-9.102-13.699c-1.105-1.664-0.69-3.904,0.939-5.061L254.673,275.304z"/>
		<path style="fill:#FF6B6B;" d="M255.324,300.324c-8.944,0-15.831,0-24.773,0l-9.894,57.205l50.27,43.205L255.324,300.324z"/>
		<path style="fill:#EE5253;" d="M254.022,300.324c-8.184,0-14.814,0-23.472,0l-9.894,57.205l20.435,17.563L254.022,300.324z"/>
		<path style="fill:#54A0FF;" d="M436.174,270.828l-63.318,0c-5.212,0-7.823,6.302-4.137,9.988l16.852,16.852L283.843,407.221    l-66.588-57.23c-8.301-7.133-20.692-6.677-28.446,1.047L72.849,466.555c-8.198,8.167-8.224,21.435-0.056,29.633    c8.168,8.2,21.435,8.223,29.633,0.056l102.221-101.831l67.173,57.732c8.54,7.337,21.351,6.616,29.012-1.633l114.392-123.191    l16.812,16.812c3.686,3.686,9.988,1.075,9.988-4.137v-63.318C442.025,273.448,439.405,270.828,436.174,270.828z"/>
		<g>
			<path style="fill:#338DEF;" d="M385.571,297.668L283.843,407.221l4.847,3.752c3.808,2.948,9.236,2.502,12.513-1.027     l99.709-107.379c2.539-2.735,2.461-6.988-0.178-9.627l-12.125-12.125c-3.686-3.686-1.075-9.988,4.137-9.988l43.428,0l-0.001,0     l-63.319,0c-5.212,0-7.823,6.302-4.137,9.988L385.571,297.668z"/>
			<path style="fill:#338DEF;" d="M92.741,466.555c125.255-124.777,116.974-117.048,120.785-119.109     c-7.974-4.299-18.054-3.045-24.717,3.591L72.849,466.555c-8.198,8.167-8.224,21.435-0.056,29.633     c6.66,6.685,16.761,7.982,24.788,3.649C85.174,493.137,82.835,476.423,92.741,466.555z"/>
			<path style="fill:#338DEF;" d="M291.712,452.145l-73.279-62.975c-2.744-2.358-6.859-2.138-9.335,0.5l-4.451,4.742l67.173,57.732     c6.75,5.8,16.161,6.544,23.596,2.535C294.12,453.979,292.874,453.144,291.712,452.145z"/>
		</g>
	</g>
	<g>
		<path d="M120.356,252.968c-0.047,0.019-0.094,0.037-0.141,0.057c-1.511,0.621-36.98,15.68-36.98,57.088v136.313l-15.024,14.967    c-11.141,11.097-11.177,29.098-0.076,40.239c11.094,11.137,29.091,11.182,40.239,0.076l97.304-96.933l61.909,53.209    c11.643,10.002,28.946,9.029,39.396-2.218L416.079,338.28l11.31,11.31c8.394,8.389,22.791,2.439,22.791-9.441V276.83    c0-7.361-5.989-13.351-13.351-13.351h-54.091c-8.109-7.149-15.634-10.309-15.98-10.452c-0.05-0.021-0.099-0.04-0.148-0.06    l-82.627-31.999v-18.807c13.063-10.246,22.153-25.322,24.551-42.523c16.128-1.362,27.946-14.551,27.946-30.057    c0-7.199-2.57-14.078-7.16-19.464v-25.5c0-19.759-6.834-39.082-19.242-54.411c-12.222-15.098-29.334-25.759-48.187-30.02    c-4.039-0.916-8.056,1.621-8.969,5.662c-0.913,4.04,1.622,8.056,5.662,8.969c32.816,7.417,55.735,36.119,55.735,69.8v15.943    c-1.669-0.463-3.387-0.786-5.141-0.97v-0.159c0.001-6.17-1.04-6.139-22.002-28.667c0-0.001-0.001-0.001-0.001-0.001    c-4.332-4.653-11.272-5.415-16.481-2.01c-24.083,15.73-53.456,23.637-80.552,21.689c-6.13-0.473-11.691,3.507-13.353,9.346    c-1.611,0.205-3.761,0.647-5.634,1.233V84.618c0-33.681,22.919-62.384,55.734-69.8c4.04-0.913,6.575-4.929,5.662-8.969    s-4.926-6.578-8.969-5.662c-18.852,4.261-35.965,14.922-48.186,30.02c-12.408,15.329-19.242,34.652-19.242,54.411v26.172    c-4.639,5.328-7.157,11.863-7.157,18.792c0,8.761,3.801,17.055,10.429,22.755c4.961,4.266,11.01,6.756,17.535,7.302    c2.425,16.723,11.463,32.855,25.931,43.573v17.759L120.356,252.968z M309.18,114.781c7.47,1.519,12.301,7.822,12.301,14.801    c0,7.078-4.911,13.32-12.301,14.821V114.781z M176.302,144.404c-15.519-3.152-17.106-24.586,0-29.253V144.404z M98.235,310.113    c0-30.852,26.024-42.504,27.641-43.196l49.337-19.127l21.662,43.413v0.001c1.661,3.327,4.683,5.753,8.29,6.655    c3.594,0.9,7.408,0.19,10.445-1.968l2.435-1.729l5.15,7.752l-6.523,38.539c-10.633-5.122-23.811-3.233-32.501,5.423    l-30.906,30.788v-53.882c0-4.143-3.357-7.5-7.5-7.5s-7.5,3.357-7.5,7.5v68.825l-40.029,39.876V310.113z M379.818,278.479h55.361    v57.688l-13.997-13.998c-3.129-3.125-8.011-2.803-10.8,0.2L295.992,445.559c-4.939,5.316-13.124,5.778-18.629,1.05l-67.173-57.732    c-2.971-2.554-7.406-2.392-10.182,0.374L97.788,491.082c-5.265,5.245-13.775,5.237-19.026-0.035    c-5.247-5.265-5.234-13.777,0.035-19.026c5.539-5.518,112.245-111.817,115.96-115.518c4.989-4.971,13.057-5.147,18.265-0.673    l4.127,3.547c0,0,62.459,53.681,62.46,53.682c3.055,2.626,7.641,2.37,10.385-0.584l101.728-109.553    c2.745-2.956,2.66-7.555-0.193-10.407l-14.037-14.036H379.818z M363.413,268.087c-0.852,0.983-1.673,2.273-2.237,3.634    c-2.074,5.007-0.938,10.718,2.895,14.55l11.741,11.741l-27.104,29.189v-4.42c0-4.143-3.357-7.5-7.5-7.5s-7.5,3.357-7.5,7.5v20.573    l-49.794,53.624l-4.791-4.118l-6.149-36.332c-0.691-4.083-4.55-6.837-8.646-6.143c-4.084,0.691-6.834,4.563-6.143,8.646    l3.136,18.527l-31.179-26.797l7.283-43.026h12.078l2.759,16.297c0.69,4.083,4.555,6.842,8.646,6.143    c4.084-0.691,6.834-4.563,6.143-8.646l-3.321-19.616l5.15-7.751l2.435,1.73c6.365,4.518,15.254,2.285,18.735-4.688v-0.001    l21.66-43.411C365.523,268.632,361.083,266.81,363.413,268.087z M256.642,285.473l-4.826,7.264h-16.709l-4.826-7.265l13.181-9.361    L256.642,285.473z M217.894,223.393v-11.916c8.221,3.191,17.094,4.659,25.687,4.659c8.826,0,17.644-1.85,25.402-5.121v12.435    l-25.521,31.503L217.894,223.393z M297.66,242.351l-19.84,39.764c-2.824-2.006-5.119-3.638-23.522-16.708l24.573-30.332l0,0    L297.66,242.351z M191.302,150.54c0-10.658,0-22.232,0-44.994c29.718,1.584,60.792-7.173,86.1-23.268    c9.672,10.382,14.936,15.864,16.778,18.08c0,56.442,0.013,49.218-0.033,51.468c-0.685,27.257-23.092,49.311-50.566,49.311    C212.225,201.136,191.302,176.809,191.302,150.54z M208.018,235.088l24.579,30.339c-9.4,6.676-22.675,16.106-23.494,16.688    l-19.84-39.764L208.018,235.088z"/>
	</g>
</g>















</svg>
