<svg height="494pt" viewBox="-88 0 494 494.32707" width="494pt" xmlns="http://www.w3.org/2000/svg"><path d="m154.089844 100.136719c-.8125-4.625-1.21875-9.308594-1.21875-14 .039062-42.882813 33.832031-78.132813 76.671875-79.976563 42.84375-1.84375 79.539062 30.371094 83.261719 73.089844 3.722656 42.71875-26.847657 80.796875-69.363282 86.390625s-81.894531-23.277344-89.351562-65.503906zm0 0" fill="#fedb41"/><path d="m60.511719 440.773438h191.097656c13.238281 0 23.964844 10.730468 23.964844 23.964843 0 13.238281-10.726563 23.964844-23.964844 23.964844h-221.429687c-13.234376 0-23.964844-10.726563-23.964844-23.964844 0-13.234375 10.730468-23.964843 23.964844-23.964843zm0 0" fill="#00efd1"/><path d="m248.820312 354.414062v86.359376h-29.539062l-78.378906-60.398438-80.390625 60.398438h-27.539063v-86.359376c-.003906-13.027343 6.875-25.085937 18.089844-31.71875l89.839844-53.160156 89.828125 53.160156c11.214843 6.632813 18.089843 18.691407 18.089843 31.71875zm0 0" fill="#00acea"/><path d="m248.820312 164.773438v21.5625c0 13.210937-7.074218 25.414062-18.539062 31.980468l-89.378906 51.21875-89.390625-51.21875c-11.464844-6.570312-18.535157-18.769531-18.539063-31.980468v-86.199219h121.117188c3.789062 21.238281 15.964844 40.0625 33.785156 52.222656s39.789062 16.636719 60.945312 12.414063zm0 0" fill="#00acea"/><path d="m219.28125 440.773438h-158.769531l80.390625-60.398438zm0 0" fill="#fedb41"/><path d="m30.179688 52.214844h130.210937c-4.972656 10.617187-7.539063 22.199218-7.519531 33.921875 0 4.691406.40625 9.375 1.21875 14h-123.910156c-13.230469 0-23.957032-10.730469-23.957032-23.960938 0-13.234375 10.726563-23.960937 23.957032-23.960937zm0 0" fill="#00efd1"/><g fill="#083863"><path d="m179.730469 99.324219c0 3.316406 2.6875 6 6 6h10.246093c10.597657 27.402343 41.382813 41.042969 68.796876 30.488281 3.09375-1.191406 4.636718-4.664062 3.445312-7.757812-1.191406-3.089844-4.664062-4.632813-7.757812-3.441407-19.527344 7.539063-41.605469-.753906-51.335938-19.289062h40.605469c3.3125 0 6-2.683594 6-6 0-3.3125-2.6875-6-6-6h-44.707031c-.699219-3.960938-.820313-8.003907-.355469-12h51.0625c3.3125 0 6-2.683594 6-6 0-3.3125-2.6875-6-6-6h-47.761719c8.9375-20.046875 32.015625-29.574219 52.496094-21.671875 3.089844 1.191406 6.5625-.347656 7.753906-3.441406s-.347656-6.566407-3.441406-7.757813c-13.578125-5.230469-28.710938-4.679687-41.871094 1.53125-13.164062 6.207031-23.210938 17.53125-27.808594 31.339844h-9.367187c-3.3125 0-6 2.6875-6 6 0 3.316406 2.6875 6 6 6h6.878906c-.359375 4-.265625 8.023437.277344 12h-7.15625c-3.3125 0-6 2.6875-6 6zm0 0"/><path d="m26.730469 354.414062v80.535157c-6.785157.671875-13.113281 3.722656-17.867188 8.609375-5.605469 5.542968-8.742187 13.113281-8.699219 21 .0625 16.507812 13.503907 29.839844 30.015626 29.765625h221.429687c7.921875.09375 15.550781-2.992188 21.175781-8.570313 5.625-5.582031 8.773438-13.183594 8.746094-21.105468-.050781-15.285157-11.597656-28.082032-26.800781-29.699219v-80.535157c-.015625-15.128906-7.988281-29.136718-20.988281-36.882812l-80.941407-47.914062 80.40625-46.097657c13.308594-7.65625 21.515625-21.832031 21.523438-37.183593v-16.800782c41.960937-10.910156 69.277343-51.308594 63.777343-94.316406-5.503906-43.007812-42.109374-75.22265625-85.46875-75.21875-32.050781 0-61.589843 18.324219-76.359374 46.324219h-126.5c-16.527344-.003907-29.933594 13.378906-29.957032 29.90625-.070312 7.925781 3.046875 15.546875 8.644532 21.15625 4.757812 4.875 11.085937 7.914062 17.863281 8.574219v80.375c.070312 15.375 8.332031 29.546874 21.675781 37.1875l80.511719 46.101562-81.0625 47.910156c-13.03125 7.730469-21.050781 21.730469-21.125 36.878906zm242.839843 110.109376c-.007812 4.746093-1.910156 9.292968-5.28125 12.632812-3.371093 3.34375-7.933593 5.203125-12.679687 5.167969h-221.429687c-4.742188.039062-9.300782-1.816407-12.671876-5.152344-3.371093-3.332031-5.273437-7.875-5.285156-12.617187-.015625-4.804688 1.871094-9.421876 5.25-12.835938 3.351563-3.417969 7.925782-5.359375 12.707032-5.394531h221.429687c9.964844.121093 17.972656 8.238281 17.960937 18.199219zm-191.085937-30.199219 62.371094-46.859375 60.808593 46.859375zm87.347656-379.570313c16.035157-34.429687 55.421875-51.265625 91.386719-39.0625 35.96875 12.203125 56.980469 49.527344 48.757812 86.605469-8.226562 37.082031-43.046874 62.023437-80.800781 57.875-37.753906-4.148437-66.328125-36.054687-66.304687-74.035156-.03125-10.84375 2.34375-21.558594 6.953125-31.375zm-153.609375 21.476563c.015625-9.902344 8.054688-17.917969 17.957032-17.90625h121.316406c-3.078125 9-4.640625 18.449219-4.625 27.960937 0 2.667969.132812 5.039063.378906 8.039063h-117.070312c-9.945313-.058594-17.976563-8.144531-17.957032-18.09375zm26.507813 110.105469v-80.011719h110.492187c9.40625 38.683593 43.984375 65.960937 83.792969 66.101562 3.25-.03125 6.492187-.253906 9.714844-.664062v14.574219c.003906 11.050781-5.902344 21.261718-15.476563 26.773437l-86.375 49.515625-86.515625-49.511719c-9.613281-5.496093-15.570312-15.703125-15.632812-26.777343zm102.171875 90.171874 86.730468 51.351563c9.355469 5.578125 15.089844 15.664063 15.097657 26.554687v79.910157h-21.40625l-76.761719-58.925781c-2.113281-1.679688-5.085938-1.746094-7.265625-.160157l-78.789063 59.085938h-19.777343v-79.910157c.074219-10.917968 5.867187-20.996093 15.265625-26.554687zm0 0"/></g></svg>